<svg id="Layer_1" data-name="Layer 1" xmlns="http://www.w3.org/2000/svg" width="599.94" height="133.61" viewBox="0 0 599.94 133.61"><title>arms-logo</title><path d="M301.64,313h50.69a2.74,2.74,0,0,1,1.94.78,3,3,0,0,1,.92,2q3,31.95,6,63.57T367.29,443A2.46,2.46,0,0,1,365,445.8H326a3,3,0,0,1-2.86-2.68q-0.65-6.65-1.25-13.25t-1.25-13.25a2,2,0,0,0-.65-1.52,1.93,1.93,0,0,0-1.57-.51H278.37a2.79,2.79,0,0,0-1.85.46,2.23,2.23,0,0,0-1,1.38q-2.59,6.74-5.08,13.48t-5.08,13.48a3.59,3.59,0,0,1-1.34,1.71,3.38,3.38,0,0,1-2,.69H223a1.84,1.84,0,0,1-1.2-.46,1.48,1.48,0,0,1-.55-1.2,2,2,0,0,1,.09-1q0.18-.55.37-1,9.6-25.95,19.11-51.48t19.11-51.48a52.54,52.54,0,0,1,2.54-5.86,32.89,32.89,0,0,1,3.37-5.31,30.76,30.76,0,0,1,7.2-7.06,38.72,38.72,0,0,1,9-4.66,47.81,47.81,0,0,1,9.7-2.49A68,68,0,0,1,301.64,313Zm0.28,34.35a2.9,2.9,0,0,0-.83.51,1.38,1.38,0,0,0-.46.79q-3,8.13-5.91,16t-5.91,15.88a0.75,0.75,0,0,0,.09.92,0.82,0.82,0,0,0,.83.37h26.41a1.37,1.37,0,0,0,1.06-.28,0.86,0.86,0,0,0,.32-1q-0.74-8-1.43-15.88t-1.43-16a1.32,1.32,0,0,0-1.66-1.29q-2.77,0-5.54,0T301.91,347.37Z" transform="translate(-221.18 -312.19)"/><path d="M391.85,312.19h67.31a64.86,64.86,0,0,1,7.34.42,43.38,43.38,0,0,1,7.16,1.43,37.35,37.35,0,0,1,9.37,4.25,32,32,0,0,1,7.71,6.83A33.48,33.48,0,0,1,496.6,335a42.89,42.89,0,0,1,2.63,11.26,52.84,52.84,0,0,1,.32,7.94,63.25,63.25,0,0,1-.78,7.94,49.12,49.12,0,0,1-3.37,12,71.54,71.54,0,0,1-5.86,11,57.84,57.84,0,0,1-5.36,7.16,82.18,82.18,0,0,1-6.28,6.42,6.83,6.83,0,0,0-1,1.52,1.77,1.77,0,0,0,0,1.71q4.43,9.88,9.28,19.44t9.93,19.16a6.31,6.31,0,0,0,.46.92,6.63,6.63,0,0,1,.46.92,1.88,1.88,0,0,1-1.75,2.58H457.59a5.66,5.66,0,0,1-2.86-.74,5.35,5.35,0,0,1-2-2q-3.32-6.65-6.56-13.16t-6.56-13.16a4.82,4.82,0,0,0-1.25-1.57,2.4,2.4,0,0,0-1.8-.55q-4.43-.09-8.86-0.09h-8.86a2.45,2.45,0,0,0-1.57.6,2.17,2.17,0,0,0-.83,1.52q-0.92,6.65-1.75,13.25t-1.57,13.25a3.19,3.19,0,0,1-1.06,1.89,2.9,2.9,0,0,1-2,.78H373.56a2.15,2.15,0,0,1-1.85-.88,2.11,2.11,0,0,1-.37-1.89q4.43-31.67,8.82-62.93T389,316.35c0.06-.37.12-0.75,0.18-1.15a4.77,4.77,0,0,1,.28-1.06,2.32,2.32,0,0,1,.92-1.29A3.12,3.12,0,0,1,391.85,312.19ZM426.57,346a1.56,1.56,0,0,0-.78.18,0.68,0.68,0,0,0-.32.65q-1.11,7.94-2.26,15.79t-2.26,16a2.79,2.79,0,0,0,0,1,1.13,1.13,0,0,0,.55.83,4.46,4.46,0,0,0,2.08.42,15.76,15.76,0,0,1,2.08,0q3.88-.09,7.66-0.14a42.05,42.05,0,0,0,7.57-.78,26.3,26.3,0,0,0,5.86-2,20.55,20.55,0,0,0,5.12-3.46,22.23,22.23,0,0,0,5.59-14.5,13.12,13.12,0,0,0-1.06-4.89,11.43,11.43,0,0,0-2.72-3.92,18.91,18.91,0,0,0-4-2.91,22,22,0,0,0-6.88-2,58.55,58.55,0,0,0-7.34-.46q-2.22.09-4.43,0A26.83,26.83,0,0,0,426.57,346Z" transform="translate(-221.18 -312.19)"/><path d="M520.84,312.75a2.62,2.62,0,0,1,1.06-.14c0.34,0,.69,0,1.06,0h49.58a2.81,2.81,0,0,1,1.85.69,2.45,2.45,0,0,1,.92,1.71q2.31,11.54,4.57,22.81t4.39,22.81a3.42,3.42,0,0,1,.23.92,1.33,1.33,0,0,0,.42.83,1.4,1.4,0,0,0,1.38.18,2.07,2.07,0,0,0,1.11-.92q5.91-11.72,11.82-23.27t11.91-23.36a7.26,7.26,0,0,1,.69-1.11A3.18,3.18,0,0,1,613,313a2.67,2.67,0,0,1,1.34-.37H662a2.3,2.3,0,0,1,1.62.65,2.07,2.07,0,0,1,.69,1.57q0,0.46,0,.92t-0.14.92q-4.43,31.67-8.86,62.88t-8.86,62.79a3.45,3.45,0,0,1-1.06,2,2.61,2.61,0,0,1-2.08.74H605.61a2.06,2.06,0,0,1-1.57-.69,2.09,2.09,0,0,1-.65-1.43,7.38,7.38,0,0,1,.28-1.94q2.12-15.33,4.2-30.38t4.2-30.38c0.06-.31.12-0.65,0.18-1a0.92,0.92,0,0,0-.37-0.92,1.33,1.33,0,0,0-1.38-.14,2.29,2.29,0,0,0-1.11,1L591.67,413.3a3.87,3.87,0,0,1-1.38,1.52,3.14,3.14,0,0,1-2,.51H567.38c-0.37,0-.74,0-1.11,0a2.19,2.19,0,0,1-1-.14A2.91,2.91,0,0,1,563,413q-2.13-8.12-4.16-16.21t-4.15-16.2a6.1,6.1,0,0,1-.28-0.83q-0.09-.37-0.18-0.83a1.39,1.39,0,0,0-1-.83,1.32,1.32,0,0,0-1.25.28,1.13,1.13,0,0,0-.46.92,5.26,5.26,0,0,1-.09,1q-2.22,15.42-4.34,30.61t-4.25,30.52a9.78,9.78,0,0,1-.55,2.12,3,3,0,0,1-2.86,1.57H503.3a2,2,0,0,1-1.75-.78,2.21,2.21,0,0,1-.55-1.89q4.43-31.86,8.91-63.25t8.91-63.16a4.14,4.14,0,0,1,.51-2A2.75,2.75,0,0,1,520.84,312.75Z" transform="translate(-221.18 -312.19)"/><path d="M732.76,312.56h67.13a1.65,1.65,0,0,1,.74.18,1.62,1.62,0,0,1,.65,1.94q-3,7.85-5.86,15.65T789.55,346a3.41,3.41,0,0,1-1.29,1.66,2.85,2.85,0,0,1-1.94.55h-63.9q-1.66.09-3.28,0.09a13.91,13.91,0,0,0-3.19.37,11.84,11.84,0,0,0-2,.74,4.12,4.12,0,0,0-1.62,1.38,5.32,5.32,0,0,0-.88,2.45,3.61,3.61,0,0,0,.6,2.45,5.69,5.69,0,0,0,2.45,1.85,24.33,24.33,0,0,0,2.91.92q10.06,2.4,20.18,4.34t20.08,4.52A57.51,57.51,0,0,1,766,370.5a33,33,0,0,1,7.39,4.85,24.7,24.7,0,0,1,7.66,10.43,25,25,0,0,1,2.12,7,41.27,41.27,0,0,1,.46,7.25,53.43,53.43,0,0,1-3.6,16.71,44.58,44.58,0,0,1-5,9.23,35.07,35.07,0,0,1-7.2,7.57,39.78,39.78,0,0,1-6.46,4.16,62.31,62.31,0,0,1-6.92,3,61.66,61.66,0,0,1-9.56,2.54q-4.85.88-9.74,1.34t-9.6.65q-4.8.09-9.7,0.09H660a1.75,1.75,0,0,1-1.48-.74,1.84,1.84,0,0,1-.37-1.57q1.11-7.85,2.17-15.61t2.17-15.6a2.51,2.51,0,0,1,.88-1.71,2.31,2.31,0,0,1,1.8-.6h62q2.49-.09,5.08,0a15.77,15.77,0,0,0,5.08-.65,9.54,9.54,0,0,0,2.35-1,4.6,4.6,0,0,0,1.71-1.94,4.13,4.13,0,0,0,.65-2.26,3.29,3.29,0,0,0-.92-2.26,4.84,4.84,0,0,0-2-1.48q-1.2-.46-2.49-0.83-1.75-.46-3.51-0.78t-3.51-.69l-13.53-2.54a117.13,117.13,0,0,1-13.25-3.28q-4.43-1.29-8.68-3a86.24,86.24,0,0,1-8.4-3.92q-2.49-1.57-4.8-3.32a36.5,36.5,0,0,1-4.34-3.88,32,32,0,0,1-3.74-5.45,23.94,23.94,0,0,1-2.35-6.19,30.7,30.7,0,0,1-.83-12.28,53.77,53.77,0,0,1,3-12,40.14,40.14,0,0,1,4.94-9.46,34.51,34.51,0,0,1,7.34-7.62,40.64,40.64,0,0,1,9.37-5.54,68.53,68.53,0,0,1,10.29-3.42,80.84,80.84,0,0,1,13.94-2.45Q725.65,312.66,732.76,312.56Z" transform="translate(-221.18 -312.19)"/><path d="M808.54,315.55l-1.49,7h-1.8l1.49-7h-2.58l0.32-1.55h7l-0.32,1.55h-2.58Z" transform="translate(-221.18 -312.19)"/><path d="M814.34,322.57l-0.79-5.7-1.2,5.7h-1.61l1.81-8.57h2.1l0.8,6.4L819,314h2.14l-1.81,8.57h-1.64l1.21-5.71-3.14,5.71h-1.39Z" transform="translate(-221.18 -312.19)"/></svg>