<svg id="Layer_1" data-name="Layer 1" xmlns="http://www.w3.org/2000/svg" width="1046.13" height="726" viewBox="0 0 1046.13 726">
  <title>bg-swirl</title>
  <g>
    <path d="M677.34,177.44s33,39.57-1.09,91.79q-3.45,5.28-7.11,10.12,17.82,27.53,36.65,53.58C744.84,211.93,677.34,177.44,677.34,177.44Z"/>
    <path d="M971,220C905,127,804,95,804,95S739,66,605,73a384,384,0,0,0-39.72,4.15q8.05,21,17,41.52c37.49-1.27,75,1.91,106.74,13.33,111,40,139,122,139,122s38.16,73,13,174a190.93,190.93,0,0,1-18.62,46.54A1727,1727,0,0,0,992.8,634.13C1062.11,526.55,1044,427,1044,427S1037,313,971,220Z"/>
    <path d="M395,153a788,788,0,0,1,92.67-23.21q-7.12-13.63-13.27-26.14C422.8,126.31,395,153,395,153Z"/>
    <path d="M980.16,652.67A1303,1303,0,0,1,792.82,516.53C735.68,582.83,653,619.24,653,619.24S516.4,682,370.7,726H910.2C939.17,702,962.08,677.26,980.16,652.67Z"/>
  </g>
  <path d="M509,464.75c51-4,88-20.09,88-20.09,30.85-13.48,54.14-33.32,71.09-52.52-18.8-21.4-36.3-42.68-52.55-63.63a160.53,160.53,0,0,1-24.31,13S431.41,411.19,315.3,230.19C278.78,173.26,262.26,88.9,256.77,0H0V75.29C51.22,244,115.9,310.69,115.9,310.69s23.2,33.46,94.71,85.8C210.6,396.49,326.09,479.06,509,464.75Z"/>
</svg>
